<svg width="54" height="54" viewBox="0 0 54 54" fill="none" xmlns="http://www.w3.org/2000/svg">
<path d="M27 7.20833C27.5753 7.20833 28.0417 6.74196 28.0417 6.16667C28.0417 5.59137 27.5753 5.125 27 5.125V7.20833ZM26.9505 46.7928C26.3758 46.8202 25.9321 47.3082 25.9595 47.8829C25.9869 48.4575 26.4749 48.9012 27.0495 48.8738L26.9505 46.7928ZM50.9583 27C50.9583 40.2318 40.2318 50.9583 27 50.9583V53.0417C41.3824 53.0417 53.0417 41.3824 53.0417 27H50.9583ZM27 50.9583C13.7682 50.9583 3.04167 40.2318 3.04167 27H0.958333C0.958333 41.3824 12.6176 53.0417 27 53.0417V50.9583ZM3.04167 27C3.04167 13.7682 13.7682 3.04167 27 3.04167V0.958333C12.6176 0.958333 0.958333 12.6176 0.958333 27H3.04167ZM27 3.04167C40.2318 3.04167 50.9583 13.7682 50.9583 27H53.0417C53.0417 12.6176 41.3824 0.958333 27 0.958333V3.04167ZM31.1667 28.0417C31.1667 30.3429 29.3012 32.2083 27 32.2083V34.2917C30.4518 34.2917 33.25 31.4934 33.25 28.0417H31.1667ZM27 32.2083C24.6988 32.2083 22.8333 30.3429 22.8333 28.0417H20.75C20.75 31.4934 23.5482 34.2917 27 34.2917V32.2083ZM22.8333 28.0417C22.8333 25.7405 24.6988 23.875 27 23.875V21.7917C23.5482 21.7917 20.75 24.5899 20.75 28.0417H22.8333ZM27 23.875C29.3012 23.875 31.1667 25.7405 31.1667 28.0417H33.25C33.25 24.5899 30.4518 21.7917 27 21.7917V23.875ZM35.3333 28.0417C35.3333 32.644 31.6024 36.375 27 36.375V38.4583C32.753 38.4583 37.4167 33.7946 37.4167 28.0417H35.3333ZM27 36.375C22.3976 36.375 18.6667 32.644 18.6667 28.0417H16.5833C16.5833 33.7946 21.247 38.4583 27 38.4583V36.375ZM18.6667 28.0417C18.6667 23.4393 22.3976 19.7083 27 19.7083V17.625C21.247 17.625 16.5833 22.2887 16.5833 28.0417H18.6667ZM27 19.7083C31.6024 19.7083 35.3333 23.4393 35.3333 28.0417H37.4167C37.4167 22.2887 32.753 17.625 27 17.625V19.7083ZM2.85533 25.9415C8.64883 26.9949 12.2797 27.2852 18.6282 27.5201L18.7052 25.4382C12.4184 25.2056 8.89283 24.9218 3.22801 23.8918L2.85533 25.9415ZM35.9759 28.0345C44.7618 27.0009 48.8467 26.6377 51.7282 25.9281L51.2301 23.9052C48.5155 24.5737 44.6549 24.9158 35.7325 25.9655L35.9759 28.0345ZM2.23467 29.0433C6.01548 30.1235 10.9433 30.6458 17.7546 30.6458V28.5625C11.0243 28.5625 6.31786 28.0432 2.807 27.0401L2.23467 29.0433ZM35.9759 31.1595C44.7459 30.1278 49.3457 29.7628 52.2278 29.0531L51.7296 27.0302C49.0155 27.6986 44.6708 28.0389 35.7325 29.0905L35.9759 31.1595ZM7.18456 24.6171C9.68889 13.0972 18.1348 7.20833 27 7.20833V5.125C17.1152 5.125 7.85277 11.7362 5.14877 24.1746L7.18456 24.6171ZM46.8085 28.897C45.802 34.4327 43.4263 38.7688 40.0441 41.7821C36.6628 44.7945 32.2113 46.5423 26.9505 46.7928L27.0495 48.8738C32.7262 48.6035 37.6497 46.7055 41.4299 43.3377C45.2091 39.9707 47.7814 35.1923 48.8582 29.2697L46.8085 28.897Z" fill="#F5EAEA"/>
</svg>
